<?xml version="1.0" encoding="utf-8"?>
<!-- Generator: Adobe Illustrator 27.5.0, SVG Export Plug-In . SVG Version: 6.00 Build 0)  -->
<svg version="1.1" id="Ñëîé_1" xmlns="http://www.w3.org/2000/svg" xmlns:xlink="http://www.w3.org/1999/xlink" x="0px" y="0px"
	 viewBox="0 0 2600 2000" style="enable-background:new 0 0 2600 2000;" xml:space="preserve">
<rect id="_x38_" style="fill:#FFFFFF;" width="2600" height="2000"/>
<g>
	<g id="_x37_">
		<path style="fill:#EBF5FF;" d="M792.214,268.361c-241.791-39.389-203.193,154.493-526.919,297.268
			c-522.35,353.198,170.273,948.421,608.488,507.483C1092.222,865.178,1109.563,320.059,792.214,268.361z"/>
		<path style="fill:#E3E8FF;" d="M217.298,1181.204c56.208,71.025-21.21,134.127-79.444,64.763
			C81.647,1174.944,159.066,1111.842,217.298,1181.204z"/>
		<path style="fill:#E3E8FF;" d="M321.429,1237.557c14.885,46.006-35.604,63.149-51.812,17.596
			C254.732,1209.149,305.221,1192.006,321.429,1237.557z"/>
		<path style="fill:#E3E8FF;" d="M670.583,208.036c4.209,48.171-48.836,53.577-54.436,5.552
			C611.937,165.419,664.983,160.012,670.583,208.036z"/>
		<path style="fill:#E3E8FF;" d="M486.538,227.357c-39.099,81.702,50.364,126.109,91.805,45.579
			C617.441,191.236,527.979,146.829,486.538,227.357z"/>
	</g>
	<g id="_x36_">
		<path style="fill:#EBF5FF;" d="M1606.802,1053.415c-101.425-139.102,100.607-195.169,68.262-486.654
			c-38.719-348.928,378.397-398.474,556.933-283.363C2820.512,695.834,2066.983,1684.548,1606.802,1053.415z"/>
		<path style="fill:#E3E8FF;" d="M2322.525,1131.912c-39.099,81.702,50.364,126.109,91.805,45.579
			C2453.428,1095.792,2363.966,1051.385,2322.525,1131.912z"/>
		<path style="fill:#E3E8FF;" d="M2233.445,1209.911c-4.336,48.159,48.695,53.705,54.422,5.696
			C2292.202,1167.448,2239.171,1161.902,2233.445,1209.911z"/>
		<path style="fill:#E3E8FF;" d="M2357.304,350.576c-4.336,48.159,48.695,53.705,54.421,5.696
			C2416.062,308.113,2363.031,302.567,2357.304,350.576z"/>
		<path style="fill:#E3E8FF;" d="M2275.156,271.715c44.714,62.89,114.766,14.588,71.893-49.564
			C2302.336,159.263,2232.284,207.566,2275.156,271.715z"/>
	</g>
	<g id="_x35_">
		<g>
			<path style="fill:#EB5648;" d="M1268.216,560.123c4.295,32.305-43.635,39.507-49.025,7.371
				C1214.895,535.191,1262.825,527.988,1268.216,560.123z"/>
			<path style="fill:#EB5648;" d="M1142.577,360.922c-18.737-58.58,27.276-115.116,88.363-110.511
				c80.356,7.561,96.442,111.294,50.395,165.534c-22.077,23.366-42.065,63.626-40.432,92.338
				c0.367,17.013-13.588,15.885-18.927,0.801c-18.984-69.971,19.631-89.259,35.319-144.726
				c11.516-89.466-86.815-74.001-102.344-3.941C1153.218,366.426,1144.384,367.199,1142.577,360.922z"/>
		</g>
		<g>
			<path style="fill:#EB5648;" d="M1386.841,644.254c-4.253,25.04-41.596,19.348-38.198-5.819
				C1352.896,613.396,1390.24,619.088,1386.841,644.254z"/>
			<path style="fill:#EB5648;" d="M1339.249,466.981c-0.439-47.932,46.854-79.409,91.269-61.892
				c58.078,24.161,46.13,105.096-0.659,134.856c-21.824,12.304-45.99,37.665-51.396,59.418c-3.651,12.75-13.779,8.692-14.275-3.769
				c2.004-56.469,35.199-61.922,59.671-99.597c29.206-63.949-47.565-75.111-75.282-26.537
				C1345.902,473.533,1339.147,472.071,1339.249,466.981z"/>
		</g>
	</g>
	<g id="_x34_">
		<g>
			<path style="fill:#2FAC66;" d="M601.712,479.845l-14.431,4.331c0,0-11.881,28.417-5.87,70.568
				c1.483,10.398-5.378,14.636-8.633,3.929c-9.609-31.613-0.801-55.435-0.801-55.435l-11.35-0.713
				c-2.093,2.395-4.273,27.008,5.842,62.422c2.756,9.649-4.12,17.688-13.027,2.757c-8.341-13.983-21.467-44.299-27.89-64.974
				l-15.345,4.611c0,0,12.983,52.017,34.341,95.983c5.366,11.103,16.644,18.633,29.1,18.961
				c19.411,0.751,35.525-15.153,35.179-34.57C608.311,559.374,607.063,513.151,601.712,479.845z"/>
			<path style="fill:#269E57;" d="M604.268,499.207c3.116,29.479,4.197,65.598,4.562,88.508
				c0.317,19.179-15.301,34.905-34.482,34.593c-11.641-0.105-22.359-6.382-28.309-16.249c0,0,63.025,29.424,58.217-106.862
				L604.268,499.207z"/>
			<path style="fill:#2FAC66;" d="M693.288,462.881c3.132,20.078-19.795,35.97-37.454,26.442
				c20.889,30.439-25.766,60.089-44.541,28.663c-13.613,11.462-36.981,10.956-50.123-1.312c-4.23,21.948-34.734,31.528-50.78,15.816
				c-11.453,42.787-77.305,34.635-77.296-10.337c-38.169,4.987-41.502-53.232-3.02-52.668
				c-23.112-32.053,13.651-75.529,49.056-58.128c-8.55-46.13,58.797-64.655,75.39-21.454c17.299-20.551,54.121-14.926,64.578,9.504
				c26.405-18.11,60.275,13.601,44.119,41.085C677.726,438.033,691.496,448.272,693.288,462.881z"/>
			<path style="fill:#269E57;" d="M693.288,462.881c3.132,20.078-19.795,35.97-37.454,26.442
				c20.889,30.439-25.766,60.089-44.541,28.663c-13.613,11.462-36.981,10.956-50.123-1.312c-4.23,21.948-34.734,31.528-50.78,15.816
				c-11.453,42.787-77.305,34.635-77.296-10.337c0,0,33.568,30.343,63.399-7.935c29.843-38.269,64.972-13.954,94.287-42.961
				c29.304-29.006,28.637-83.313-36.259-81.354c17.299-20.551,54.121-14.926,64.578,9.504c26.405-18.11,60.275,13.601,44.119,41.085
				C677.726,438.033,691.496,448.272,693.288,462.881z"/>
		</g>
		<g>
			<g>
				<g>
					<path style="fill:#269E57;" d="M287.611,517.052c0,0-13.663-84.214-38.322-133.864c-22.34-44.981-50.236-20.209-40.638,13.252
						c13.77,48.004,64.53,124.615,64.53,124.615L287.611,517.052z"/>
					<path style="fill:#2FAC66;" d="M258.937,525.006c-169.184-110.435-92.475-251.134,13.208-7.688L258.937,525.006z"/>
					<path style="fill:#2FAC66;" d="M299.389,512.928c28.493-145.283-84.595-176.925-10.788,3.005L299.389,512.928z"/>
				</g>
				<path style="fill:#6ECE6E;" d="M263.285,520.576c-0.412,0.055-52.377-59.15-83.978-115.066
					c37.546,50.281,84.437,114.307,85.136,112.595C265.264,519.03,264.516,520.622,263.285,520.576z"/>
				<path style="fill:#6ECE6E;" d="M292.623,506.905c-3.714-1.2-3.78-46.083-16.59-91.331c-0.514-1.849,2.442-2.685,2.914-0.762
					C289.638,460.511,296.547,505.455,292.623,506.905z"/>
				<path style="fill:#9ED89E;" d="M278.25,509.918c-1.4,0.088-38.706-76.605-54.358-132.466
					c22.394,51.834,54.487,131.433,55.722,130.32C280.092,508.734,279.322,509.944,278.25,509.918z"/>
			</g>
			<path style="fill:#E86A64;" d="M464.017,723.916c-72.609,11.191-171.195-77.534-202.519-141.007
				c-40.73-65.815,48.358-109.682,75.923-48.525l0.012,0.007c26.89,67.622,68.726,127.524,125.235,174.226
				C467.247,712.293,468,719.344,464.017,723.916z"/>
			<path style="fill:#E25252;" d="M464.869,711.068c13.611,38.279-74.625-2.994-87.087-10.271
				c-49.013-27.306-138.035-105.541-123.953-166.752C256.812,549.723,336.587,701.853,464.869,711.068z"/>
			<path style="fill:#E25252;" d="M258.164,551.681c-2.016,0.074-2.79-2.907-0.921-3.791c0,0,20.084-10.357,20.084-10.357
				c0.985-0.51,2.195-0.122,2.704,0.864c0.508,0.985,0.121,2.196-0.864,2.704l-20.084,10.357
				C258.788,551.609,258.473,551.681,258.164,551.681z"/>
			<path style="fill:#E25252;" d="M302.738,551.466c-2.048,0.074-2.791-2.976-0.867-3.818c0,0,21.186-10.131,21.186-10.131
				c2.326-1.155,4.102,2.531,1.731,3.621c0,0-21.186,10.131-21.186,10.131C303.323,551.403,303.028,551.466,302.738,551.466z"/>
			<path style="fill:#E25252;" d="M290.39,593.634c-1.982,0.073-2.787-2.832-0.98-3.76c0,0,18.953-10.575,18.953-10.575
				c0.969-0.542,2.19-0.194,2.73,0.774c0.54,0.968,0.193,2.19-0.775,2.731l-18.953,10.575
				C291.057,593.552,290.721,593.634,290.39,593.634z"/>
			<path style="fill:#E25252;" d="M333.179,603.681c-1.871,0.07-2.766-2.586-1.166-3.642c0,0,13.424-9.566,13.424-9.566
				c2.092-1.54,4.476,1.787,2.329,3.269C347.222,593.867,333.57,604.435,333.179,603.681z"/>
			<path style="fill:#E25252;" d="M318.634,637.755c-1.843,0.068-2.758-2.522-1.213-3.607c0,0,13.285-10.066,13.285-10.066
				c2.048-1.6,4.526,1.655,2.424,3.199C332.808,627.31,318.648,638.783,318.634,637.755z"/>
			<path style="fill:#E25252;" d="M388.983,674.392c-1.714,0.059-2.7-2.231-1.42-3.425c0,0,12.485-12.503,12.485-12.503
				c1.809-1.866,4.711,1.017,2.841,2.836C402.178,661.672,389.837,675.24,388.983,674.392z"/>
			<path style="fill:#E25252;" d="M406.252,707.89c-1.708,0.059-2.696-2.215-1.431-3.414c0,0,10.784-10.968,10.784-10.968
				c1.797-1.879,4.717,0.982,2.862,2.815C417.81,696.691,407.012,708.79,406.252,707.89z"/>
			<path style="fill:#E25252;" d="M441.688,712.95c-6.162-0.665,4.76-10.7,5.36-12.583c1.521-2.11,4.808,0.326,3.222,2.395
				C449.289,703.568,443.288,713.5,441.688,712.95z"/>
			<path style="fill:#E25252;" d="M350.073,645.303c-1.819,0.067-2.75-2.469-1.251-3.577c0,0,17.422-13.873,17.422-13.873
				c0.867-0.691,2.13-0.548,2.82,0.32c0.691,0.867,0.547,2.129-0.32,2.82l-17.422,13.873
				C350.953,645.16,350.511,645.303,350.073,645.303z"/>
			<path style="fill:#E25252;" d="M360.514,673.249c-1.71,0.058-2.698-2.221-1.426-3.419c0,0,14.514-14.661,14.514-14.661
				c0.78-0.788,2.05-0.794,2.838-0.014c0.788,0.78,0.794,2.05,0.014,2.838C375.574,658.304,361.423,674.355,360.514,673.249z"/>
		</g>
		<g>
			<path style="fill:#F9B233;" d="M418.429,843.19c-154.236-68.238,124.558,29.392,238.633-189.655
				c0.665,0.422,5.23-53.194,25.686-49.813c5.256,1.581,5.77,5.374,4.026,10.605c-3.522,10.622-16.354,27.215-17.99,43.531
				C665.357,818.849,538.003,887.95,418.429,843.19z"/>
			<path style="fill:#F39200;" d="M385.38,827.737c-13.392-5.889-21.473-17.125,0.838-15.337
				C388.259,817.329,387.131,821.57,385.38,827.737z"/>
			<path style="fill:#F39200;" d="M418.429,843.19c192.522,21.261,250.354-185.332,250.354-185.332
				C665.357,818.849,538.003,887.95,418.429,843.19z"/>
			<path style="fill:#F9B233;" d="M504.688,915.513c-9.609,0.254-79.507-5.908-41.2-19.192
				c129.777-40.02,208.047-155.271,208.026-286.522c3.515-8.329,16.577-7.699,15.343,2.993c0.094,11.19-6.693,31.036-2.98,47.004
				C733.006,803.624,661.71,926.66,504.688,915.513z"/>
			<path style="fill:#F39200;" d="M504.688,915.513c211.565-13.617,180.466-251.618,180.466-251.618
				C731.925,807.556,659.607,926.086,504.688,915.513z"/>
			<path style="fill:#F39200;" d="M470.447,912.038c-14.576-1.253-28.655-10.206-6.961-15.714
				C467.009,900.332,470.114,905.636,470.447,912.038z"/>
			<path style="fill:#F39200;" d="M668.508,613.024c0,0,10.879,9.918,18.216,3.044c0,0,4.162-8.803-2.218-11.722
				C678.125,601.428,673.035,604.21,668.508,613.024z"/>
		</g>
		<g>
			<path style="fill:#2FAC66;" d="M788.656,640.287c-42.137-14.901-36.895-39.176-24.745-85.169
				c9.814-40.52,51.366-53.346,72.783-90.954c21.894-38.452,33.616-59.848,55.247-55.431
				C993.255,429.426,922.727,710.651,788.656,640.287z"/>
			<path style="fill:#FCBE59;" d="M788.632,640.173c-15.491-5.436-27.916-14.156-36.677-25.376l-0.01-0.003
				c-13.704-17.56-18.451-41.25-11.955-68.068c9.815-40.52,51.367-53.346,72.784-90.954c19.234-33.771,42.696-49.307,62.886-49.985
				C979.376,411.34,883.917,691.468,788.632,640.173z"/>
			<path style="fill:#843F2C;" d="M845.491,577.056c-32.494,59.475-93.764,20.413-66.751-34.622
				C809.128,484.2,873.766,517.936,845.491,577.056z"/>
			<path style="fill:#8E4A35;" d="M834.944,555.105c-13.56,27.116-42.949,39.277-62.094,21.421
				c-7.977-35.54,38.433-84.184,67.984-55.513C842.406,531.626,840.578,543.714,834.944,555.105z"/>
			<path style="fill:#269E57;" d="M788.656,640.287l-0.024-0.115c104.329,48.293,167.645-156.809,139.888-202.726
				C966.363,508.546,912.983,698.844,788.656,640.287z"/>
			<path style="fill:#F9AE41;" d="M788.632,640.173c-15.491-5.436-27.916-14.156-36.677-25.376
				c83.904,49.958,110.72,8.308,143.296-92.105c32.915-101.459-18.794-116.445-19.59-116.905
				C979.352,411.316,883.941,691.474,788.632,640.173z"/>
		</g>
		<g>
			<path style="fill:#58B758;" d="M675.255,1011.747c-5.775,0.155-9.653-6.878-6.27-11.667c0.638-0.966,15.994-23.807,47.112-37.498
				c3.805-1.674,8.246,0.054,9.92,3.858c1.674,3.805-0.054,8.246-3.858,9.92C687.035,992,687.352,1008.668,675.255,1011.747z"/>
			<path style="fill:#269E57;" d="M671.212,1037.024c-64.598,66.429-163.093,107.245-256.023,93.659
				c-30.954-6.306-36.564-30.647-21.148-45.387c4.23-4.043,10.035-7.357,17.339-9.381c39.29-10.89,76.956-19.871,114.802-34.184
				c33.247-12.572,72.862-31.572,119.183-53.461C688.892,968.711,696.68,1012.809,671.212,1037.024z"/>
			<path style="fill:#1C8E4A;" d="M671.212,1037.024c-64.593,66.427-163.097,107.248-256.023,93.659
				c-30.954-6.301-36.575-30.672-21.134-45.39c0,0,138.606,84.01,289.22-66.867C680.886,1024.343,676.939,1030.636,671.212,1037.024
				z"/>
			<path style="fill:#2FAC66;" d="M649.089,1006.145c-1.973,3.468-7.373,0.289-5.299-3.119
				C645.763,999.558,651.163,1002.736,649.089,1006.145z"/>
			<path style="fill:#2FAC66;" d="M654.125,1034.971c-1.973,3.468-7.373,0.289-5.299-3.119
				C650.798,1028.385,656.199,1031.563,654.125,1034.971z"/>
			<path style="fill:#2FAC66;" d="M622.891,1061.778c-1.973,3.468-7.373,0.289-5.299-3.119
				C619.565,1055.192,624.965,1058.37,622.891,1061.778z"/>
			<path style="fill:#2FAC66;" d="M626.638,1032.174c-1.973,3.468-7.373,0.29-5.299-3.119
				C623.311,1025.588,628.711,1028.766,626.638,1032.174z"/>
			<path style="fill:#2FAC66;" d="M585.986,1057.303c-1.973,3.468-7.373,0.29-5.299-3.119
				C582.659,1050.717,588.06,1053.895,585.986,1057.303z"/>
			<path style="fill:#2FAC66;" d="M545.998,1077.769c-1.973,3.468-7.373,0.29-5.299-3.119
				C542.671,1071.183,548.072,1074.361,545.998,1077.769z"/>
			<path style="fill:#2FAC66;" d="M511.962,1085.09c-1.973,3.468-7.373,0.29-5.299-3.119
				C508.635,1078.504,514.036,1081.682,511.962,1085.09z"/>
			<path style="fill:#2FAC66;" d="M480.937,1105.48c-1.973,3.468-7.373,0.29-5.299-3.119
				C477.61,1098.894,483.011,1102.072,480.937,1105.48z"/>
			<path style="fill:#2FAC66;" d="M441.163,1089.209c-1.973,3.468-7.373,0.29-5.299-3.119
				C437.836,1082.623,443.237,1085.801,441.163,1089.209z"/>
			<path style="fill:#2FAC66;" d="M582.952,1087.213c-1.973,3.468-7.373,0.29-5.299-3.119
				C579.625,1080.627,585.026,1083.805,582.952,1087.213z"/>
			<path style="fill:#2FAC66;" d="M593.214,1028.855c-1.973,3.467-7.373,0.29-5.299-3.119
				C589.887,1022.269,595.287,1025.447,593.214,1028.855z"/>
			<path style="fill:#2FAC66;" d="M547.014,1049.234c-1.973,3.468-7.373,0.289-5.299-3.119
				C543.687,1042.647,549.088,1045.825,547.014,1049.234z"/>
			<path style="fill:#2FAC66;" d="M476.149,1074.718c-1.973,3.468-7.373,0.29-5.299-3.119
				C472.822,1068.132,478.223,1071.309,476.149,1074.718z"/>
			<path style="fill:#2FAC66;" d="M445.319,1119.025c-1.973,3.468-7.373,0.29-5.299-3.119
				C441.992,1112.439,447.393,1115.617,445.319,1119.025z"/>
			<path style="fill:#2FAC66;" d="M412.832,1107.042c-1.973,3.467-7.373,0.289-5.299-3.119
				C409.505,1100.456,414.906,1103.634,412.832,1107.042z"/>
			<path style="fill:#2FAC66;" d="M532.015,1107.593c-1.973,3.467-7.373,0.289-5.299-3.119
				C528.688,1101.007,534.089,1104.185,532.015,1107.593z"/>
			<path style="fill:#E25252;" d="M473.153,1043.161c-0.191-0.031-1.488-0.282-3.897-1.431L473.153,1043.161z"/>
		</g>
		<g>
			<path style="fill:#824DD6;" d="M380.573,938.281c8.764,60.434-69.093,93.918-120.185,55.027
				c-63.855-51.508-85.106-139.467-82.263-214.5c6.511-47.44,56.515-30.745,76.636,8.781
				C293.651,854.605,364.872,863.31,380.573,938.281z"/>
			<path style="fill:#7640CC;" d="M252.972,784.674c-46.621-4.441-21.582,41.349-41.454,54.471
				c-19.676,12.979-32.893-23.436-33.168-24.203c-0.902-11.857-1.053-25.272-0.224-36.135
				C183.8,733.814,231.789,745.859,252.972,784.674z"/>
			<path style="fill:#58B758;" d="M194.576,762.495c-7.855-1.211-26.537-25.978-21.309-60.829c1.766-8.924,15.763-5.993,13.746,2.91
				C178.881,738.855,216.234,756.73,194.576,762.495z"/>
			<path style="fill:#7640CC;" d="M380.573,938.281c8.764,60.434-69.093,93.918-120.185,55.027
				c-50.98-38.816-74.421-109.353-80.885-166.165C185.23,864.423,265.055,1016.652,380.573,938.281z"/>
			<path style="fill:#269E57;" d="M191.546,748.335c0,0-19.204,28.625,12.473,80.881
				C204.018,829.216,225.77,770.882,191.546,748.335z"/>
			<path style="fill:#269E57;" d="M191.546,748.335c0,0,31.16-16.843,63.127,26.092
				C254.673,774.426,203.805,786.463,191.546,748.335z"/>
			<path style="fill:#269E57;" d="M191.546,748.335c0,0-27.556,16.463-19.077,59.508
				C172.468,807.843,204.671,784.659,191.546,748.335z"/>
		</g>
		<g>
			<path style="fill:#269E57;" d="M858.327,819.726c-20.822-1.889,20.733-70.25,35.894-54.278c1.425,2.747,0.355,6.13-2.391,7.556
				C858.682,790.711,870.216,817.867,858.327,819.726z"/>
			<path style="fill:#269E57;" d="M868.522,786.013c0,0,30.927-46.106-15.263-90.843
				C853.259,695.17,815.943,752.952,868.522,786.013z"/>
			<path style="fill:#E86A64;" d="M920.085,905.422c-21.414,57.904-63.766,64.134-107.3,35.777
				c-15.575-6.148-24.133-1.3-39.479-11.937c-13.06-9.05-20.868-20.102-24.424-32.578c0.003-0.009,0.003-0.009,0.003-0.009
				c-14.622-64.639,53.946-145.881,113.723-92.831C918.474,798.573,938.341,856.834,920.085,905.422z"/>
			<path style="fill:#9ED89E;" d="M866.411,770.856c-0.813,0-1.482-0.648-1.504-1.465c-1.284-48.078-12.36-69.451-12.471-69.661
				c-0.39-0.734-0.111-1.646,0.623-2.036c4.409,0.579,12.395,21.2,14.859,71.615C867.941,770.156,867.257,770.858,866.411,770.856z"
				/>
			<path style="fill:#E25252;" d="M920.085,905.422c-21.414,57.904-63.766,64.134-107.3,35.777
				c-15.575-6.148-24.133-1.3-39.479-11.937c-13.06-9.05-20.868-20.102-24.424-32.578c0.003-0.009,0.003-0.009,0.003-0.009
				c-1.058-3.704-1.745-7.55-2.076-11.492c47.695,49.57,189.229,58.133,166.734-60.401
				C929.53,846.368,929.72,879.596,920.085,905.422z"/>
		</g>
	</g>
	<g id="_x33_">
		<g>
			<path style="fill:#FCBE59;" d="M1899.215,657.28c1.322-107.271-246.657-136.908-258.524-29.01
				C1627.72,746.201,1895.95,782.269,1899.215,657.28z M1765.098,677.901c-46.479-7.538-39.533-54.297,7.127-48.005
				C1818.703,637.434,1811.757,684.193,1765.098,677.901z"/>
			<path style="fill:#824DD6;" d="M1898.486,648.64c-17.605-116.333-279.279-120.254-253.24-7.09
				c6.136,15.39,10.622,10.392,17.087,16.783c6.465,6.392,10.631,36.121,39.842,38.897c29.55,2.809,19.839-2.24,40.995,2.429
				c18.757,4.964,25.788,25.822,42.452,26.49c17.263,0.691,27.801-20.823,44.979-24.703c15.818-3.9,33.888,5.78,42.244,1.656
				C1881.578,698.909,1900.17,669.408,1898.486,648.64z M1776.336,602.203c46.476,7.549,39.411,55.112-7.25,48.832
				C1722.609,643.486,1729.674,595.922,1776.336,602.203z"/>
			<path style="fill:#E8C0A6;" d="M1667.684,597.247c-2.348,0.084-3.148-3.433-0.921-4.337c0,0,15.027-6.676,15.027-6.676
				c2.663-1.231,4.548,2.986,1.84,4.142c0,0-15.027,6.676-15.027,6.676C1668.304,597.184,1667.991,597.247,1667.684,597.247z"/>
			<path style="fill:#E8C0A6;" d="M1694.466,620.62c-0.535,0.74-13.654-9.986-14.263-10.231c-2.364-1.737,0.415-5.427,2.736-3.612
				c0,0,12.896,9.771,12.896,9.771C1697.574,617.77,1696.551,620.7,1694.466,620.62z"/>
			<path style="fill:#E8C0A6;" d="M1682.788,640.49c-0.38,0.02-17.045-2.533-17.427-2.562c-2.903-0.387-2.247-4.96,0.667-4.482
				c0,0,17.09,2.537,17.09,2.537C1685.835,636.323,1685.504,640.556,1682.788,640.49z"/>
			<path style="fill:#E8C0A6;" d="M1693.457,663.143c-1.571,0.028-2.731-1.682-2.093-3.132c0,0,6.323-15.28,6.323-15.28
				c1.082-2.728,5.353-0.971,4.187,1.733C1700.746,647.792,1696.145,663.951,1693.457,663.143z"/>
			<path style="fill:#E8C0A6;" d="M1726.917,633.175c-0.323,0.028-13.119-1.949-13.46-1.973c-2.905-0.388-2.246-4.959,0.667-4.482
				c0,0,13.123,1.948,13.123,1.948C1729.965,629.009,1729.632,633.242,1726.917,633.175z"/>
			<path style="fill:#E8C0A6;" d="M1724.025,607.481c-0.365,0.02-15.988-2.374-16.359-2.403c-2.903-0.387-2.247-4.96,0.667-4.482
				c0,0,16.022,2.378,16.022,2.378C1727.072,603.315,1726.741,607.548,1724.025,607.481z"/>
			<path style="fill:#E8C0A6;" d="M1712.547,587.064c-1.126,0-2.102-0.838-2.245-1.984l-1.714-13.667
				c-0.409-2.907,4.179-3.492,4.496-0.563c0,0,1.714,13.666,1.714,13.666C1714.977,585.857,1713.898,587.073,1712.547,587.064z"/>
			<path style="fill:#E8C0A6;" d="M1750.369,597.045c-0.211,0-0.425-0.029-0.637-0.091l-17.338-5.069
				c-1.201-0.351-1.89-1.609-1.539-2.811c0.352-1.202,1.612-1.89,2.811-1.539l17.338,5.069
				C1753.483,593.253,1752.894,597.125,1750.369,597.045z"/>
			<path style="fill:#E8C0A6;" d="M1742.258,580.246c-2.458,0.081-3.135-3.666-0.736-4.409c0,0,17.748-6.099,17.748-6.099
				c2.761-0.994,4.271,3.37,1.472,4.285c0,0-17.748,6.099-17.748,6.099C1742.75,580.206,1742.502,580.246,1742.258,580.246z"/>
			<path style="fill:#E8C0A6;" d="M1786.935,596.546c-0.799,0.82-14.009-11.859-14.738-12.198c-2.234-1.904,0.809-5.381,2.99-3.405
				c0,0,13.244,11.635,13.244,11.635C1790.014,593.871,1788.941,596.622,1786.935,596.546z"/>
			<path style="fill:#E8C0A6;" d="M1790.501,583.04c-2.005,0.073-3.082-2.675-1.495-3.969c0,0,10.04-8.803,10.04-8.803
				c2.181-1.966,5.229,1.499,2.988,3.407C1801.19,574.138,1791.463,583.679,1790.501,583.04z"/>
			<path style="fill:#E8C0A6;" d="M1817.908,610.64c-1.71,1.29-12.091-18.053-13.019-18.755c-1.595-2.464,2.311-4.925,3.838-2.408
				c0,0,11.098,17.693,11.098,17.693C1820.793,608.616,1819.629,610.687,1817.908,610.64z"/>
			<path style="fill:#E8C0A6;" d="M1852.384,601.116c-0.44,0.057-19.957-4.365-20.426-4.416c-1.222-0.267-1.995-1.475-1.728-2.698
				c0.267-1.222,1.473-1.997,2.697-1.729l19.938,4.363C1855.468,597.136,1855.004,601.19,1852.384,601.116z"/>
			<path style="fill:#E8C0A6;" d="M1835.158,635.208c-1.455,0.018-2.583-1.424-2.195-2.835l4.381-16.903
				c0.696-2.851,5.166-1.702,4.387,1.137c0,0-4.381,16.903-4.381,16.903C1837.085,634.531,1836.165,635.208,1835.158,635.208z"/>
			<path style="fill:#E8C0A6;" d="M1877.986,630.337c-0.604,1.033-17.132-15.217-17.725-15.477
				c-0.921-0.847-0.982-2.281-0.135-3.202c0.846-0.921,2.278-0.982,3.201-0.135l16.193,14.88
				C1881.053,627.715,1879.97,630.411,1877.986,630.337z"/>
			<path style="fill:#E8C0A6;" d="M1857.564,654.441c-1.203,0-2.205-0.946-2.262-2.161l-0.742-16.018
				c-0.179-2.93,4.437-3.152,4.527-0.21c0,0,0.742,16.017,0.742,16.017C1859.893,653.358,1858.853,654.446,1857.564,654.441z"/>
			<path style="fill:#E8C0A6;" d="M1837.568,656.776c-0.303,0-0.609-0.061-0.904-0.189l-18.456-8.043
				c-2.706-1.132-0.872-5.373,1.811-4.154c0,0,18.456,8.042,18.456,8.042C1840.71,653.322,1839.931,656.863,1837.568,656.776z"/>
			<path style="fill:#E8C0A6;" d="M1877.32,664.236c-1.692,0.041-2.862-1.96-1.952-3.413l9.602-16.353
				c1.449-2.555,5.436-0.221,3.908,2.294C1887.809,647.706,1879.345,665.26,1877.32,664.236z"/>
			<path style="fill:#E8C0A6;" d="M1865.847,680.623c-0.425,0.021-22.504-3.348-22.919-3.377c-2.902-0.388-2.248-4.957,0.667-4.482
				c0,0,22.583,3.352,22.583,3.352C1868.892,676.457,1868.564,680.69,1865.847,680.623z"/>
			<path style="fill:#E8C0A6;" d="M1738.581,661.731c-0.413,0-0.831-0.113-1.206-0.35l-16.828-10.607
				c-2.505-1.526-0.051-5.442,2.416-3.833c0,0,16.828,10.607,16.828,10.607C1741.714,658.668,1740.763,661.817,1738.581,661.731z"/>
			<path style="fill:#E8C0A6;" d="M1770.813,679.929c-1.152,0-2.138-0.875-2.252-2.046l-1.484-15.218
				c-0.327-2.913,4.253-3.372,4.51-0.44c0,0,1.484,15.218,1.484,15.218C1773.208,678.766,1772.142,679.936,1770.813,679.929z"/>
			<path style="fill:#E8C0A6;" d="M1793.435,675.788c-1.864,0.059-3.003-2.354-1.713-3.748c0,0,12.219-14.132,12.219-14.132
				c0.819-0.947,2.25-1.05,3.195-0.232c0.947,0.818,1.051,2.249,0.232,3.196C1806.56,661.372,1794.517,676.903,1793.435,675.788z"/>
			<path style="fill:#E8C0A6;" d="M1797.394,694.167c-2.689,0.067-3.063-4.129-0.359-4.503c0,0,21.094-3.419,21.094-3.419
				c2.877-0.512,3.644,4.044,0.724,4.473C1818.369,690.762,1797.879,694.179,1797.394,694.167z"/>
			<path style="fill:#E8C0A6;" d="M1755.751,694.223c-2.368,1.018-9.021-16.845-10.098-17.918c-1.318-2.622,2.837-4.645,4.079-1.975
				c0,0,8.057,16.639,8.057,16.639C1758.538,692.424,1757.373,694.259,1755.751,694.223z"/>
			<path style="fill:#E8C0A6;" d="M1713.014,681.641c-1.969,0.069-3.066-2.596-1.55-3.918c0,0,11.053-10.368,11.053-10.368
				c2.109-2.039,5.277,1.323,3.099,3.305C1724.813,671.108,1713.934,682.438,1713.014,681.641z"/>
		</g>
		<g>
			<path style="fill:#F99370;" d="M1902.659,1006.089c4.94,18.528-118.114,51.521-123.072,33.951c-0.004,0-0.057,0-0.058,0
				c-10.273-19.489-41.803-79.309-51.558-97.814c55.094-14.972,114.484-31.105,169.588-46.082
				C1898.512,916.818,1901.658,984.395,1902.659,1006.089z"/>
			<path style="fill:#E0784F;" d="M1898.969,926.511c-9.193,7.894-21.623,9.239-33.555,6.481
				c-21.293,31.024-60.819,42.303-94.067,23.741c-0.534,2.206-20.622,14.818-29.295,12.209
				c-1.942-3.684-12.394-23.514-14.083-26.716c55.094-14.972,114.484-31.105,169.588-46.082
				C1897.709,899.66,1898.786,922.494,1898.969,926.511z"/>
			<path style="fill:#E0784F;" d="M1902.659,1006.089c4.94,18.528-118.114,51.521-123.072,33.951h-0.048
				c31.586-0.419,123.011-37.407,107.386-127.94c2.511-3.587,11.76-16.804,14.102-20.129c-0.521,3.622-1.623,6.848-3.216,9.678
				L1902.659,1006.089z"/>
			<g>
				<path style="fill:#E0784F;" d="M1784.722,1011.379c-1.019,0-2.002-0.557-2.499-1.525l-36.837-71.755
					c-0.709-1.379-0.164-3.072,1.215-3.78c3.762-6.226,39.004,72.979,40.618,72.969
					C1788.202,1009.09,1786.758,1011.428,1784.722,1011.379z"/>
				<path style="fill:#E0784F;" d="M1810.343,1009.435c-1.138,0-2.208-0.697-2.63-1.826l-29.423-78.788
					c-0.543-1.452,0.195-3.069,1.647-3.612c1.454-0.542,3.069,0.194,3.612,1.647l29.423,78.787
					C1813.682,1007.43,1812.254,1009.469,1810.343,1009.435z"/>
				<path style="fill:#E0784F;" d="M1882.188,984.894c-1.478,0-2.716-1.155-2.8-2.65l-4.542-80.53
					c-0.256-3.605,5.443-3.977,5.605-0.316C1878.976,902.914,1888.967,987.779,1882.188,984.894z"/>
				<path style="fill:#E0784F;" d="M1859.104,996.183c-1.339,0-2.523-0.96-2.763-2.324l-14.495-82.843
					c-0.267-1.527,0.755-2.982,2.282-3.25c1.527-0.265,2.98,0.755,3.249,2.282l14.495,82.843
					C1862.187,994.588,1860.827,996.199,1859.104,996.183z"/>
				<path style="fill:#E0784F;" d="M1835.527,1005.638c-1.234,0-2.366-0.821-2.707-2.07l-22.799-83.634
					c-0.407-1.496,0.475-3.039,1.971-3.447c1.494-0.406,3.039,0.474,3.447,1.97l22.799,83.634
					C1838.744,1003.841,1837.344,1005.663,1835.527,1005.638z"/>
			</g>
			<path style="fill:#FCB4B4;" d="M1901.026,891.971c-2.352,19.303-23.361,27.415-40.712,22.563
				c-20.41,30.682-58.232,42.495-90.908,23.741c-40.171,37.337-75.949-21.254-41.233-43.146c0,0-25.866-30.058,13.416-42.334
				c0,0-21.916-58.947,45.338-59.961c-5.907,3.737-12.895,25.609,8.037,27.663c11.474,1.168,27.768-2.734,42.807,7.447
				c22.034-10.582,40.891,5.199,32.666,28.522C1875.967,855.182,1906.064,863.662,1901.026,891.971z"/>
			<path style="fill:#F49F9F;" d="M1901.026,891.971c-2.352,19.303-23.361,27.415-40.712,22.563
				c-20.41,30.682-58.232,42.495-90.908,23.741c-40.171,37.337-75.949-21.254-41.233-43.146c0,0-1.874,36.722,23.075,31.632
				c24.948-5.1,32.164-29.807,64.066-25.093c31.468,4.636,67.032-65.264-20.351-81.172c11.474,1.169,27.769-2.734,42.807,7.447
				c22.034-10.582,40.891,5.199,32.666,28.522C1875.967,855.182,1906.064,863.662,1901.026,891.971z"/>
			<path style="fill:#E25252;" d="M1756.752,878.596c-0.427,0.923-12.846-10.143-13.393-10.379
				c-2.291-1.835,0.642-5.404,2.885-3.495c0,0,11.951,9.861,11.951,9.861C1759.844,875.847,1758.791,878.674,1756.752,878.596z"/>
			<path style="fill:#E25252;" d="M1751.248,920.696c-2.016,0.073-3.089-2.701-1.475-3.986c0,0,15.301-13.109,15.301-13.109
				c0.952-0.813,2.381-0.704,3.195,0.247s0.704,2.38-0.246,3.195C1767.098,907.346,1752.092,921.693,1751.248,920.696z"/>
			<path style="fill:#E25252;" d="M1812.36,933.823c-0.147,0.708-15.004-9.819-15.387-9.984c-2.452-1.613,0.137-5.439,2.547-3.748
				c0,0,14.116,9.592,14.116,9.592C1815.485,930.846,1814.503,933.907,1812.36,933.823z"/>
			<path style="fill:#E25252;" d="M1806.029,905.81c-1.855,0.059-2.997-2.334-1.726-3.733c0,0,12.352-14.546,12.352-14.546
				c0.812-0.953,2.24-1.07,3.194-0.26c0.954,0.81,1.07,2.24,0.261,3.194C1819.308,890.963,1807.118,906.966,1806.029,905.81z"/>
			<path style="fill:#E25252;" d="M1875.494,895.888c-0.27,0-0.543-0.048-0.809-0.15l-18.089-6.914
				c-2.758-1.007-1.114-5.324,1.617-4.232c0,0,18.089,6.914,18.089,6.914C1878.629,892.312,1877.914,895.972,1875.494,895.888z"/>
			<path style="fill:#E25252;" d="M1839.276,858.731c-1.539,0.024-2.693-1.61-2.125-3.054l6.456-17.42
				c0.979-2.77,5.313-1.168,4.25,1.575C1846.74,841.179,1842.105,859.659,1839.276,858.731z"/>
			<path style="fill:#E25252;" d="M1786.022,889.827c-1.453,0.018-2.579-1.418-2.197-2.827l5.27-20.614
				c0.687-2.851,5.161-1.72,4.391,1.122C1792.423,868.95,1789.271,890.976,1786.022,889.827z"/>
			<path style="fill:#E25252;" d="M1811.821,844.769c-0.378,0-0.761-0.095-1.113-0.293l-16.809-9.5
				c-1.089-0.616-1.473-1.998-0.857-3.087c0.616-1.09,1.998-1.473,3.088-0.858l16.809,9.5
				C1814.961,841.584,1814.058,844.856,1811.821,844.769z"/>
			<path style="fill:#E25252;" d="M1765.928,843.172c-1.091,0-2.052-0.79-2.233-1.902l-3.442-21.125
				c-0.514-2.887,4.039-3.64,4.473-0.728c0,0,3.442,21.125,3.442,21.125C1768.403,841.905,1767.309,843.185,1765.928,843.172z"/>
		</g>
		<g>
			<path style="fill:#E8C0A6;" d="M2197.916,834.337c-14.157,23.599-196.899-4.054-216.457-22.252
				c-19.558-18.211-22.252-93.062-22.252-93.062l252.681-3.315l4.913-0.066C2222.875,766.221,2212.086,810.725,2197.916,834.337z"/>
			<path style="fill:#8E4A35;" d="M2216.801,715.643c-0.394-0.606-9.068,29.189-8.769,41.81c0,16.19-20.904,24.959-31.694,0
				c-10.789-24.946-31.021,11.476-49.892,9.442c-18.884-2.02-39.789-34.969-53.272-22.542c-13.496,12.427-5.856,28.71-21.578,28.71
				c-16.647,0-14.17-36.514-43.157-37.861c-29-1.347-47.885,2.707-49.232-16.177c-1.347-18.884,203.647-65.409,225.226-64.062
				C2205.436,656.176,2222.126,695.914,2216.801,715.643z"/>
			<path style="fill:#8E4A35;" d="M2114.6,795.385c-37.378,1.805-146.861-15.952-149.326-30.865
				c5.268-5.907,27.301,10.786,75.126,17.705c39.566,7.034,100.659,11.958,167.029-4.516c1.766-0.44,3.56,0.639,3.999,2.409
				c0.439,1.77-0.639,3.561-2.409,4C2175.552,792.424,2143.405,795.385,2114.6,795.385z"/>
			<path style="fill:#8E4A35;" d="M2127.048,822.24c-25.685,4.119-180.285-22.495-151.274-32.786
				c43.327,16.852,158.063,38.831,227.145,16.86C2224.622,817.56,2132.821,823.238,2127.048,822.24z"/>
			<path style="fill:#8E4A35;" d="M2197.916,834.337c13.226-52.68,11.157-77.428,5.225-98.215l8.747-20.413l2.667-27.191
				C2217.765,698.515,2235.867,778.981,2197.916,834.337z"/>
			<path style="fill:#E25252;" d="M2144.283,674.256c-0.631,35.552-53.435,35.338-53.95-0.001
				C2090.919,638.87,2143.614,638.716,2144.283,674.256z"/>
			<path style="fill:#E86A64;" d="M2136.482,666.274c2.297,27.107-46.415,40.513-46.15,7.982
				C2088.037,647.152,2136.737,633.743,2136.482,666.274z"/>
			<path style="fill:#EB5648;" d="M2117.299,661.197c-5.164-0.211-5.074-11.899-1.814-26.772
				c3.354-12.082,12.432-28.64,36.635-38.908c1.682-0.713,3.617,0.072,4.328,1.75c0.712,1.679-0.071,3.617-1.75,4.329
				C2106.397,622.748,2126.886,658.567,2117.299,661.197z"/>
			<path style="fill:#E2BF93;" d="M2007.473,719.062c-2.503,0.094-3.676-3.472-1.519-4.855c0,0,13.425-9.301,13.425-9.301
				c2.808-2.007,5.909,2.45,3.035,4.38C2021.87,709.5,2007.718,719.96,2007.473,719.062z"/>
			<path style="fill:#E2BF93;" d="M2068.665,729.278c-0.351,0.776-16.734-9.859-17.335-9.978c-2.982-1.734-0.195-6.396,2.747-4.567
				c0,0,15.965,9.596,15.965,9.596C2072.354,725.613,2071.259,729.379,2068.665,729.278z"/>
			<path style="fill:#E2BF93;" d="M2164.574,691.183c-2.453,0.091-3.663-3.362-1.6-4.796c0,0,15.965-11.973,15.965-11.973
				c1.177-0.882,2.848-0.644,3.73,0.533c0.883,1.177,0.645,2.847-0.533,3.731C2181.531,678.919,2164.978,692.15,2164.574,691.183z"
				/>
			<path style="fill:#E2BF93;" d="M2180.54,725.247c-0.519,0.066-22.15-4.801-22.701-4.859c-3.381-0.682-2.242-5.989,1.13-5.208
				c0,0,22.133,4.798,22.133,4.798C2184.166,720.56,2183.623,725.333,2180.54,725.247z"/>
			<path style="fill:#E2BF93;" d="M2068.667,704.607c-2.228,0.074-3.555-2.854-1.958-4.471c0,0,12.38-13.424,12.38-13.424
				c2.3-2.573,6.302,1.102,3.918,3.612C2081.917,691.026,2070.131,705.551,2068.667,704.607z"/>
			<path style="fill:#E2BF93;" d="M2122.646,741.958c-3.075,0.991-8.607-17.624-9.898-19.098c-1.399-3.154,3.592-5.295,4.903-2.089
				c0,0,7.445,17.478,7.445,17.478C2125.869,739.954,2124.505,741.994,2122.646,741.958z"/>
		</g>
		<g>
			<g>
				<path style="fill:#FCBE59;" d="M2277.028,430.382c-0.164-0.008-0.334-0.034-0.504-0.061
					c14.807,2.414,11.264,24.964-3.591,22.683c14.827,2.413,11.248,24.969-3.591,22.683c14.826,2.414,11.249,24.962-3.591,22.683
					c14.755,2.117,11.087,25.22-3.59,22.674c-6.256-0.99-10.537-6.871-9.545-13.137c-2.116,14.759-25.221,11.085-22.674-3.589
					c-2.42,14.826-24.968,11.246-22.683-3.591c-2.414,14.826-24.971,11.245-22.683-3.591c-2.414,14.826-24.962,11.249-22.683-3.591
					c-2.117,14.756-25.22,11.087-22.674-3.59c0.99-6.256,6.869-10.528,13.135-9.536c-14.8-2.407-11.269-24.966,3.591-22.683
					c-14.827-2.413-11.248-24.969,3.591-22.683c-14.826-2.414-11.249-24.962,3.591-22.683c-14.823-2.413-11.254-24.958,3.589-22.674
					c-6.266-0.992-10.537-6.88-9.546-13.137c2.411-14.819,24.959-11.256,22.674,3.589c2.42-14.827,24.968-11.246,22.683,3.591
					c2.414-14.827,24.969-11.247,22.683,3.591c2.414-14.826,24.962-11.249,22.683,3.591c2.413-14.822,24.958-11.254,22.674,3.589
					c0.992-6.266,6.88-10.537,13.137-9.546c14.823,2.411,11.251,24.963-3.591,22.683
					C2294.565,409.681,2291.468,432.291,2277.028,430.382z"/>
				<path style="fill:#F9AE41;" d="M2277.028,430.382c-0.164-0.008-0.334-0.034-0.504-0.061
					c14.807,2.414,11.264,24.964-3.591,22.683c14.827,2.413,11.248,24.969-3.591,22.683c14.826,2.414,11.249,24.962-3.591,22.683
					c14.755,2.117,11.087,25.22-3.59,22.674c-6.256-0.99-10.537-6.871-9.545-13.137c-2.116,14.759-25.221,11.085-22.674-3.589
					c-2.42,14.826-24.968,11.246-22.683-3.591c-2.414,14.826-24.971,11.245-22.683-3.591c-2.414,14.826-24.962,11.249-22.683-3.591
					c-2.079,14.728-25.248,11.107-22.674-3.59c0.99-6.256,6.869-10.528,13.135-9.536c0,0,79.708-5.119,118.213-85.91
					c2.729-5.727,6.88-10.537,13.137-9.546c14.79,2.431,11.284,24.947-3.591,22.683
					C2294.565,409.681,2291.468,432.291,2277.028,430.382z"/>
				<path style="fill:#F7A828;" d="M2194.625,510.335c2.305-1.81,5.288-2.741,8.396-2.378
					C2200.717,509.767,2197.734,510.699,2194.625,510.335z"/>
				<path style="fill:#F39200;" d="M2243.527,491.476c-91.75-16.188-77.905,6.32-64.312-86.782c0.642-5.531,7.401-9.037,11.32-7.984
					c6,2.117,70.757,8.057,71.42,14.458c5.191,1.736-9.074,68.002-8.702,72.219C2252.485,487.957,2248.151,491.55,2243.527,491.476z
					 M2242.664,486.875c2.849,0.51,5.768-1.607,6.16-4.477c-0.736-1.749,13.103-69.335,9.298-68.805
					c-0.281-4.316-65.588-10.621-68.316-12.415c-2.928-0.462-5.695,1.547-6.159,4.481
					C2172.35,496.615,2152.746,469.512,2242.664,486.875z"/>
			</g>
			<g>
				<path style="fill:#FCBE59;" d="M2353.604,522.582c13.25,6.828,2.227,27.469-10.811,20.262
					c13.253,6.822,2.228,27.47-10.811,20.262c13.251,6.822,2.231,27.464-10.811,20.262c13.252,6.826,2.23,27.459-10.807,20.253
					c-5.588-2.982-7.711-9.939-4.725-15.536c-6.826,13.255-27.459,2.228-20.254-10.807c-6.828,13.25-27.469,2.227-20.262-10.811
					c-6.822,13.253-27.47,2.227-20.262-10.811c-6.822,13.251-27.464,2.231-20.262-10.811c-6.826,13.252-27.459,2.23-20.253-10.807
					c2.982-5.588,9.934-7.703,15.531-4.717c-13.227-6.801-2.247-27.48,10.811-20.262c-13.253-6.822-2.228-27.47,10.811-20.262
					c-13.251-6.822-2.231-27.464,10.811-20.262c-13.248-6.82-2.237-27.462,10.807-20.254c-13.247-6.828-2.229-27.469,10.812-20.261
					c5.588,2.982,7.703,9.934,4.717,15.531c6.828-13.25,27.469-2.227,20.262,10.811c6.822-13.253,27.47-2.227,20.262,10.811
					c6.822-13.251,27.464-2.231,20.262,10.811c6.82-13.248,27.461-2.237,20.254,10.807c6.828-13.247,27.469-2.229,20.261,10.812
					c-2.982,5.588-9.939,7.711-15.536,4.725C2377.666,509.154,2366.639,529.787,2353.604,522.582z"/>
				<path style="fill:#F9AE41;" d="M2353.604,522.582c13.25,6.828,2.227,27.469-10.811,20.262
					c13.253,6.822,2.228,27.47-10.811,20.262c13.251,6.822,2.231,27.464-10.811,20.262c13.252,6.826,2.23,27.459-10.807,20.253
					c-5.588-2.982-7.711-9.939-4.725-15.536c-6.826,13.255-27.459,2.228-20.254-10.807c-6.828,13.25-27.469,2.227-20.262-10.811
					c-6.822,13.253-27.47,2.227-20.262-10.811c-6.822,13.251-27.464,2.231-20.262-10.811c-6.781,13.239-27.492,2.24-20.253-10.807
					c2.982-5.588,9.934-7.703,15.531-4.717c0,0,84.929,60.323,139.807-42.53c2.986-5.597,9.947-7.708,15.536-4.725
					c13.201,6.835,2.267,27.455-10.811,20.262C2377.666,509.154,2366.639,529.787,2353.604,522.582z"/>
				<path style="fill:#F39200;" d="M2305.628,570.119c-2.156,1.969-59.893-31.487-62.773-32.18
					c-4.958-2.28-6.12-10.113-3.832-13.304c3.948-4.927,30.766-64.266,37.018-62.766c3.365-4.34,61.254,30.801,65.394,31.834
					c5.008,2.42,6.103,9.95,3.832,13.305c-0.788,1.386-30.834,57.866-31.01,58.112
					C2312.439,568.307,2309.086,570.119,2305.628,570.119z M2303.109,564.955c2.623,1.398,5.889,0.403,7.287-2.216l30.883-57.881
					c1.397-2.62,0.403-5.889-2.216-7.287c-1.977,0.107-61.131-35.03-61.983-31.285c-3.854-1.421-31.721,58.722-34.072,60.5
					c-1.41,2.525-0.365,5.978,2.22,7.287C2245.229,534.072,2303.109,564.955,2303.109,564.955z"/>
			</g>
		</g>
		<g>
			<path style="fill:#E0784F;" d="M2403.48,836.91v0.01c-0.82,1.8-1.65,3.6-2.49,5.41c-2.36-2.21-7.7-10.84-12.54-18.93
				c-0.96-1.6-1.9-3.18-2.79-4.69c-0.08-0.14-0.16-0.27-0.24-0.41c-3.44-5.81-6.14-10.42-6.5-10.63c-0.47-0.74-0.54-1.47-0.35-2.12
				c0.57-2.04,3.72-3.21,5.14-0.82l1.47,2.4h0.01l3.03,4.94v0.01l2.01,3.26l2.98,4.86L2403.48,836.91z"/>
			<path style="fill:#E0784F;" d="M2338.74,977.36c-1.1,2.38-3.29,7.13-3.29,7.13v0.01l-0.01,0.01l-9.55,5.86l-4.9,3.01l-3.82,2.35
				l-4.01,2.46l-1.47,0.42h-0.1l0.1-2.81c0,0,0.08-2.24,0.12-3.37l6.26-3.84l2.44-1.5l2.45-1.5v-0.01l13.14-8.07
				C2336.1,977.51,2337.92,976.97,2338.74,977.36z"/>
			<g>
				<path style="fill:#F99370;" d="M2411.17,820.26c-25.228,54.703-75.72,164.24-75.72,164.24l-13.59,29.46l-10.75-2.57l3.71-100.7
					c0,0,2.766-75.006,4.14-112.45c0.183-4.812,5.301-6.41,9.26-4.719c17.21,4.073,39.683,9.512,56.97,13.609
					c2.985,0.477,10.221,2.605,13.26,3.16C2403.573,811.671,2414.349,812.249,2411.17,820.26z"/>
				<path style="fill:#E0784F;" d="M2318.96,798.243c0,0-0.867,23.544-0.9,24.517c1.013-0.325,2.507-1.067,4.268-2.05
					c5.576,10.176,13.569,17.86,22.75,22.377c-5.914,3.633-11.74,7.211-17.269,10.606c-3.405-5.91-8.509-15.078-10.359-14.534
					c-0.1,2.61-0.19,5.23-0.29,7.86c1.919,3.123,3.89,6.331,5.895,9.593c-2.194,1.347-4.343,2.667-6.395,3.927
					c-0.07,2.05-0.15,4.12-0.23,6.18h0.11c2.942-1.849,6.045-3.732,9.257-5.644c5.348,8.703,10.903,17.742,16.426,26.731
					c-9.883,6.074-20.09,12.347-27.184,16.704c-0.099,2.827-0.2,5.653-0.31,8.48c2.869,4.668,9.973,16.226,15.396,25.051
					c-6.669,4.436-13.439,8.969-16.716,10.819c-0.07,1.94-0.14,3.87-0.21,5.79c3.061-1.195,11.146-6.03,20.038-11.545
					c1.072,1.744,1.978,3.221,2.633,4.286c-4.73,12.222-9.451,24.424-14.109,36.463c-2.366-3.971-6.568-12.748-9.162-12.734
					c-0.1,2.58-0.19,5.15-0.29,7.72c1.744,2.846,4.256,7.29,6.884,11.652c-2.724,7.041-8.084,20.898-8.084,20.898l0,0
					c1.404,4.305,6.688,5.865,10.205,3.012l0.545-0.442c0,0,72.158-156.511,72.157-156.512c2.525-5.479,17.026-36.897,17.155-37.183
					C2412.66,817.029,2319.13,793.391,2318.96,798.243z M2374.921,846.456c-1.109,2.867-2.212,5.717-3.302,8.535
					c-1.501-2.443-3.01-4.896-4.524-7.36C2369.695,847.479,2372.31,847.092,2374.921,846.456z M2330.7,858.33
					c-0.024-0.027-0.055-0.067-0.082-0.099c6.844-4.007,14.099-8.14,21.443-12.387c2.667,0.802,5.399,1.344,8.173,1.625
					c2.926,4.793,5.858,9.554,8.79,14.234c-1.693,4.377-3.334,8.624-4.884,12.637h-0.01c-4.645,2.856-10.692,6.573-17.128,10.529
					C2341.204,875.433,2335.483,866.12,2330.7,858.33z M2318.553,908.487c7.823-4.687,17.133-10.012,26.774-15.63
					c2.404,3.913,4.791,7.796,7.145,11.627c-3.252,8.406-6.533,16.888-9.827,25.401c-0.002,0.001-0.005,0-0.005,0.005
					c-2.186,1.349-4.91,3.12-7.831,5.046C2329.077,925.606,2323.169,915.992,2318.553,908.487z M2350.17,890.025
					c3.418-2.007,6.851-4.043,10.25-6.092c-1.788,4.624-3.591,9.286-5.405,13.977
					C2353.418,895.311,2351.799,892.675,2350.17,890.025z"/>
			</g>
			<path style="fill:#F49F9F;" d="M2440.625,815.072c-19.115,26.956-39.035,1.96-39.035,1.96
				c-26.537,22.433-59.969,12.08-74.459-16.791c-48.903,15.023-36.999-59.5-6.783-59.011c-5.104-15.306,4.087-42.821,27.774-32.187
				c18.005-26.837,36.201-9.016,46.188-19.975c8.643-9.481-3.236-20.526-3.236-20.526c55.539-4.65,35.818,57.989,35.818,57.989
				c32.124,9.33,9.934,42.516,9.934,42.516S2459.749,788.118,2440.625,815.072z"/>
			<path style="fill:#EF9595;" d="M2440.625,815.072c-19.115,26.956-39.035,1.96-39.035,1.96
				c-26.537,22.433-59.969,12.08-74.459-16.791c55.297,29.593,89.419-25.997,81.837-49.493c-7.572-23.493,5.08-17.884,6.714-48.519
				s-24.608-33.688-24.608-33.688c55.539-4.65,35.818,57.989,35.818,57.989c32.124,9.33,9.934,42.516,9.934,42.516
				S2459.749,788.118,2440.625,815.072z"/>
			<path style="fill:#E25252;" d="M2384.401,718.211c-1.165,5.216-9.329,3.266-8.011-1.914
				C2377.555,711.082,2385.719,713.032,2384.401,718.211z"/>
			<path style="fill:#E25252;" d="M2399.492,756.995c-1.165,5.215-9.329,3.266-8.011-1.914
				C2392.646,749.866,2400.81,751.815,2399.492,756.995z"/>
			<path style="fill:#E25252;" d="M2420.393,789.086c-1.165,5.216-9.33,3.266-8.011-1.914
				C2413.546,781.958,2421.71,783.907,2420.393,789.086z"/>
			<path style="fill:#E25252;" d="M2432.57,748.882c-1.165,5.215-9.33,3.266-8.011-1.914
				C2425.724,741.753,2433.888,743.703,2432.57,748.882z"/>
			<path style="fill:#E25252;" d="M2321.795,772.51c-1.165,5.215-9.329,3.266-8.011-1.914
				C2314.949,765.381,2323.113,767.331,2321.795,772.51z"/>
			<path style="fill:#E25252;" d="M2362.732,762.593c-1.165,5.216-9.33,3.266-8.012-1.914
				C2355.886,755.465,2364.05,757.414,2362.732,762.593z"/>
			<path style="fill:#E25252;" d="M2372.652,799.895c-1.165,5.216-9.329,3.266-8.011-1.914
				C2365.806,792.767,2373.97,794.716,2372.652,799.895z"/>
			<path style="fill:#E25252;" d="M2349.714,733.329c-1.165,5.216-9.329,3.266-8.011-1.914
				C2342.868,726.201,2351.032,728.15,2349.714,733.329z"/>
		</g>
		<g>
			<path style="fill:#F9AE41;" d="M1826.88,444.503c-152.03,78.326-110.44-49.306-44.309-80.969
				C1785.251,396.938,1809.625,430.676,1826.88,444.503z"/>
			<path style="fill:#F9AE41;" d="M2021.644,544.105c-22.083,61.612-80.975,22.793-70.238-44.526l77.851-38.636
				C2029.256,460.943,2038.501,505.28,2021.644,544.105z"/>
			<path style="fill:#F39200;" d="M1826.88,444.503c-20.927,10.063-109.371,51.104-104.324,0.417c0,0,35.037,16.785,76.528-18.09
				l9.453-1.704C1818.243,437.651,1826.88,444.503,1826.88,444.503z"/>
			<path style="fill:#F39200;" d="M2021.644,544.105c-21.921,61.235-80.642,23.39-70.311-44.055l36.18,1.622
				C1987.512,501.672,1982.219,550.767,2021.644,544.105z"/>
			<path style="fill:#FCBE59;" d="M1861.02,451.445c-10.597,9.254-25.751,0.985-38.472-4.838
				c-64.904-38.227-56.187-137.72,40.928-115.573C1863.476,331.034,1867.319,442.264,1861.02,451.445z"/>
			<path style="fill:#F9AE41;" d="M1863.331,435.92l-7.432,18.878c-20.547,2.653-43.326-11.33-56.816-27.968
				c0,0,21.053,10.586,50.363,3.362L1863.331,435.92z"/>
			<path style="fill:#FCBE59;" d="M2029.256,460.943c-17.526,54.123-131.11,74.16-107.351-2.204
				c0,0.002,71.335-72.846,71.335-72.846S2044.908,418.538,2029.256,460.943z"/>
			<path style="fill:#F9AE41;" d="M1987.512,501.672c-39.792,18.407-74.009,5.72-67.737-33.379l33.488-11.265
				C1953.263,457.028,1943.783,499.624,1987.512,501.672z"/>
			<path style="fill:#F9AE41;" d="M1972.549,432.685c-33.33,52.63-95.098,79.658-118.671,17.183
				c-13.525-35.452,2.706-99.503,9.598-118.833C1889.307,271.372,2050.596,337.263,1972.549,432.685z"/>
			<path style="fill:#F39200;" d="M1953.263,457.028c-51.218,51.122-95.115,31.072-103.807-26.826
				C1850.172,431.09,1886.822,475.789,1953.263,457.028z"/>
		</g>
		<g>
			<path style="fill:#F7A828;" d="M2230.56,1056.851c-42.055,0.694-132.347,4.806-273.569,72.004
				c-11.72,5.712-21.306,16.352-14.75-12.257c15.1-65.896,89.279-187.63,184.223-208.71
				C2166.066,929.737,2223.13,990.414,2230.56,1056.851z"/>
			<path style="fill:#EB5648;" d="M2221.879,1035.937c-2.611,3.777-0.389,12.049-3.757,14.002
				c-10.594,6.129-39.416-2.731-59.787-1.246c-34.343,2.511-37.014,26.829-79.818,16.334c-38.878-9.537-34.951,23.759-70.231,29.101
				c-16.972,2.571-37.572,21.367-54.873,32.051c-48.448,24.488,55.539-200.36,173.051-218.287
				c29.326,14.793,73.372,89.292,95.416,113.813v0.01C2221.879,1021.715,2227.49,1027.814,2221.879,1035.937z"/>
			<path style="fill:#CE3932;" d="M2046.79,1024.889c-0.523,30.63-46.084,30.625-46.603-0.001
				C2000.71,994.259,2046.271,994.263,2046.79,1024.889z"/>
			<path style="fill:#EA4A42;" d="M2221.879,1035.937c-2.611,3.777-0.389,12.049-3.757,14.002
				c-10.594,6.129-39.416-2.731-59.787-1.246c-34.343,2.511-37.014,26.829-79.818,16.334c-38.878-9.537-34.951,23.759-70.231,29.101
				c-15.051-2.62-69.212,52.715-67.092,28.693c107.824-122.578,253.748-41.91,223.629-155.292l34.224,24.068l22.832,30.108v0.01
				C2221.879,1021.715,2227.49,1027.814,2221.879,1035.937z"/>
			<path style="fill:#CE3932;" d="M2170.759,1009.808c-0.536,31.394-47.235,31.389-47.766-0.001
				C2123.529,978.414,2170.228,978.419,2170.759,1009.808z"/>
			<path style="fill:#CE3932;" d="M2152.228,945.52c-0.535,31.325-47.13,31.32-47.661-0.001
				C2105.102,914.195,2151.697,914.2,2152.228,945.52z"/>
			<path style="fill:#CE3932;" d="M2100.644,1024.889c-0.1,22.237-33.909,22.235-34.006-0.001
				C2066.737,1002.652,2100.547,1002.654,2100.644,1024.889z"/>
			<path style="fill:#CE3932;" d="M2001.429,1074.656c-0.1,22.237-33.91,22.235-34.006-0.001
				C1967.523,1052.419,2001.332,1052.421,2001.429,1074.656z"/>
			<path style="fill:#CE3932;" d="M2087.407,958.266c0.219,34.739-51.336,41.472-57.793,7.751
				c12.348-11.471,23.453-24.146,39.259-33.613C2078.181,937.278,2087.407,947.025,2087.407,958.266z"/>
			<path style="fill:#FCBE59;" d="M2221.69,1056.835c-1.136-1.515-5.481-9.338-12.308-20.929v-0.01
				c-18.059-30.656-53.508-87.712-93.243-124.496c-4.973-4.604,12.318-15.278,28.682-6.159
				c46.802,26.182,79.386,88.76,95.186,130.656C2246.605,1053.467,2230.56,1068.605,2221.69,1056.835z"/>
			<path style="fill:#F7A828;" d="M2221.69,1056.835c-1.136-1.515-5.481-9.338-12.308-20.929v-0.01
				c26.809-34.234-39.994-112.697-39.994-112.697c33.646,30.656,57.793,78.583,70.62,112.697
				C2246.605,1053.467,2230.56,1068.605,2221.69,1056.835z"/>
		</g>
	</g>
	<g id="_x32_">
		<path style="fill:#F99370;" d="M1712.899,1390.016c-50.702-106.212-105.124-231.245-230.18-270.3
			c-10.931-3.414-24.833,5.809-6.7,14.112c13.251,6.068,22.871,10.664,34.429,18.814c-10.673,1.97-19.353,9.165-13.137,17.001
			c-11.323,3.765-18.216,11.948-10.727,20.918c-13.617,5.328,18.808,47.54,29.021,28.902c-0.648,1.183,18.962,34.973,43.149,43.391
			c30.621,10.657,30.153,155.083,30.153,155.083c-0.01-0.02-35.68-67.576-68.078-119.922c-116.12-107.45-163.54,33.2-111.89,90.39
			c64.21,71.11,170.721,256.776,263.891,278.296C1847.962,1689.198,1766.404,1480.212,1712.899,1390.016z"/>
		<path style="fill:#824DD6;" d="M1701.221,1715.603c-39.931,1.499-160.024-30.001-202.723-176.763
			c-5.764-19.812-26.157-13.857-39.137-30.457c-21.13-27.04-47.79-50.73-67.64-73.77c-26.28-29.1-22.04-107.29,4.41-149.96
			c35.56-77.5,185.553,31.55,185.553,31.55c9.573,46.374,7.217,101.71,7.227,101.73c0,0,61.71,43.2,123.99-27.92
			C1788.541,1456.883,1867.179,1709.375,1701.221,1715.603z"/>
		<path style="fill:#4867AA;" d="M1566.461,1269.006c0,0,36.889-0.266,62.802-34.291c0,0,13.106,8.132,14.936,22.633
			c0,0-14.636,30.115-67.099,36.852C1577.099,1294.2,1564.556,1284.338,1566.461,1269.006z"/>
		<path style="fill:#395B96;" d="M1605.573,1274.117c-2.862-2.997-2.478-7.576,0.856-10.228l18.202-14.476
			c3.334-2.652,8.357-2.372,11.219,0.625c2.862,2.997,2.478,7.576-0.856,10.228l-18.202,14.476
			C1613.457,1277.394,1608.434,1277.114,1605.573,1274.117z"/>
		<path style="fill:#E57D61;" d="M1539.351,1162.012c-10.368-8.186-26.88-8.946-26.938-8.424c-8.132-5.158,16.62-4.246,27.904,5.714
			C1541.434,1160.15,1540.73,1162.064,1539.351,1162.012z"/>
		<path style="fill:#E57D61;" d="M1529.115,1176.31c-18.685-13.328-28.248-3.721-31.192-6.157
			c-1.215-3.512,14.381-9.376,32.102,3.403C1531.21,1174.373,1530.529,1176.363,1529.115,1176.31z"/>
		<path style="fill:#E57D61;" d="M1516.881,1192.089c-18.08-7.791-27.384-1.547-27.036-1.226c-1.407,1.384-3.566-0.874-2.102-2.215
			c0.358-0.339,9.017-8.229,29.732,0.507C1518.993,1189.741,1518.487,1192.147,1516.881,1192.089z"/>
		<path style="fill:#7640CC;" d="M1605.231,1685.539c-54.273-24.482-99.073-109.905-100.03-129.906
			c-0.986-20.61-32.86-30.65-45.84-47.25l-3.96-32.98l39.06-94.86C1640.967,1510.783,1454.317,1533.041,1605.231,1685.539z"/>
		<path style="fill:#163260;" d="M1312.961,855.241c0,0-299.502,138.28-285.163,521.254c0,0,164.603,40.161,291.612-4.327
			C1296.25,1319.859,1248.347,1036.353,1312.961,855.241z"/>
		<path style="fill:#0A2744;" d="M1196.053,1105.751c0,0-51.152,131.101-28.704,271.5l286.967,0.694
			c0,0-16.613-227.134-27.631-302.434L1196.053,1105.751z"/>
		<path style="fill:#F99370;" d="M1261.967,1197.939c0,0-15.148,37.261-69.287,50.352c-88.106,21.305-159.115,95.197-159.115,95.197
			c9.014,10.755,204.788-33.172,219.498-23.81c43.328,27.574,60.184,42.128,76.267,42.894
			c16.083,0.766,81.954-83.002,80.423-114.267c0,0-51.815-6.936-48.886-45.526L1261.967,1197.939z"/>
		<path style="fill:#824DD6;" d="M1115.841,1583.213c3-23.93,2.27-50.1-5.9-76.13c-20.186-83.485,30.297-145.572,34.13-243.53
			c0,0,149.68,102.01,185.26,99.02c21.444-17.587,70.921-97.128,113.201-106.478c41.622,4.157,45.674,118.779,72.389,165.498
			c26.93,47.49,12.55,100.87-9.72,134.04c-10.489,23.119,4.565,44.46,13.378,72.45c9.832,26.12,20.342,61.722,20.772,92.062h-458.6
			C1080.751,1720.144,1108.761,1639.833,1115.841,1583.213z"/>
		<path style="fill:#E57D61;" d="M1364.447,1175.539c-0.252,8.097-2.013,17.009-3.58,27.24c-48.16,11.95-85.67,0.72-98.9-4.84
			c3.869-21.489,8.215-40.297,9.31-44.66C1288.532,1091.943,1376.804,1113.649,1364.447,1175.539z"/>
		<path style="fill:#7640CC;" d="M1143.438,1508.658c-8.514,34.806-2.534,87.156-2.534,87.156l-25.065-12.598
			c3-23.93,2.27-50.1-5.9-76.13c-3.53-11.26-5-23.39-4.96-36.25l76.92-52.308
			C1181.899,1418.528,1150.449,1479.999,1143.438,1508.658z"/>
		<path style="fill:#F99370;" d="M1403.798,1649.166c-36.722-0.511-44.904,17.872-79.836,5.981
			c-123.025-48.763-249.627-16.937-251.903-132.56c3.572-123.652,170.727-113.257,136.386-220.591
			c-16.909-41.46-97.127-36.144-136.384,4.926c-46.267,45.06-140.866,180.724-140.875,180.744
			c-128.602,329.271,387.264,208.546,552.238,230.396C1483.424,1718.061,1492.376,1650.397,1403.798,1649.166z"/>
		<path style="fill:#824DD6;" d="M1196.051,1441.503c-15.76,9.87-44.06,41.88-62.03,54.71c-36.37,25.96-43.466,63.121-24.289,77.208
			c9.272,6.811,43.538,31.923,43.538,31.923c14.251,3.071,24.276,4.716,31.356,15.056c-2.66,8.26-28.385,43.429-7.385,98.859
			c-477.833,71.502-267.51-395.679-22.671-458.934c-0.009-0.012,60.611,11.378,73.511,48.828
			C1251.391,1362.123,1278.781,1379.723,1196.051,1441.503z"/>
		<g>
			<path style="fill:#163260;" d="M1312.961,855.241c0,0,138.198-59.456,106.367,158.126L1312.961,855.241z"/>
			<path style="fill:#F99370;" d="M1449.448,1086.237c-10.652,80.854-104.013,122.106-177.132,97.027
				c-150.134-47.543-104.284-361.445,69.58-303.139l0.001,0.01c52.958,23.435,52.745,78.939,78.179,127.879
				C1437.535,1030.623,1454.208,1056.672,1449.448,1086.237z"/>
			<path style="fill:#E57D61;" d="M1403.357,965.838c-39.972-73.641-55.857-73.242-92.135-85.274l3.784-7.177
				C1364.66,877.429,1390.402,920.017,1403.357,965.838z"/>
			<path style="fill:#E57D61;" d="M1277,1184.617c-1.559-0.412-3.098-0.847-4.607-1.309c0,0-0.059,0.016-0.075-0.042
				c-38.576-11.226-63.777-39.841-76.267-77.515l20.11,11.886C1216.161,1117.637,1228.783,1164.509,1277,1184.617z"/>
			<path style="fill:#E57D61;" d="M1324.094,956.06c-38.427,87.29-104.235,129.556-104.235,129.556l-31.983-10.205
				c-2.983-14.438-5.302-29.72-5.843-44.51l72.555-65.585L1324.094,956.06z"/>
			<path style="fill:#163260;" d="M1341.892,880.132c0,0,18.506,137.596-145.822,225.686
				C986.49,965.864,1207.74,713.801,1341.892,880.132z"/>
			<path style="fill:#F99370;" d="M1224.056,1072.175c26.76,43.323-24.403,76.013-52.472,33.532
				C1144.824,1062.385,1195.988,1029.695,1224.056,1072.175z"/>
			<path style="fill:#C16256;" d="M1185.637,1107.332c-21.088-25.672-9.038-44.072,14.488-41.599c2.238,0.2,1.899,3.707-0.344,3.458
				c-20.115-1.772-29.417,10.778-12.678,35.469C1187.856,1105.766,1186.961,1107.37,1185.637,1107.332z"/>
			<path style="fill:#C16256;" d="M1210.528,1098.033c-2.204,0.302-12.416-20.174-33.412-17.774
				c-0.956,0.113-1.819-0.561-1.937-1.513c-0.117-0.953,0.561-1.82,1.514-1.937
				C1197.418,1073.958,1217.228,1096.986,1210.528,1098.033z"/>
		</g>
		<path style="fill:#C16256;" d="M1341.752,1017.379c2.811,7.792-9.491,12.028-12.072,4.156
			C1326.87,1013.743,1339.171,1009.508,1341.752,1017.379z"/>
		<path style="fill:#C16256;" d="M1401.956,994.75c2.811,7.792-9.491,12.028-12.072,4.156
			C1387.073,991.114,1399.375,986.878,1401.956,994.75z"/>
		<path style="fill:#C16256;" d="M1395.355,1060.702c-2.139,0.073-3.001-3.041-1.061-4.051c3.871-2.464,20.586-17.938,7.583-19.75
			c-17.512-1.867-36.803-31.491-24.637-25.353c0.099,0.187,10.092,18.561,25.344,21.083
			C1422.619,1036.068,1401.745,1058.752,1395.355,1060.702z"/>
		<path style="fill:#C16256;" d="M1398.706,1089.684c-7.396,1.448,7.219-26.011,13.955-19.919c0.53,1.072,0.09,2.37-0.981,2.899
			C1400.652,1078.5,1403.158,1088.597,1398.706,1089.684z"/>
		<path style="fill:#2FAC66;" d="M1256.471,1245.326c-0.01,0.126-0.029,0.271-0.058,0.435c0.029-0.261,0.048-0.522,0.077-0.782
			C1256.481,1245.055,1256.471,1245.171,1256.471,1245.326z"/>
		<path style="fill:#F7A92B;" d="M1212.035,1202.825c-34.481-2.537-3.555-89.184-5.172-88.139
			C1214.371,1132.73,1241.712,1199.949,1212.035,1202.825z"/>
		<path style="fill:#F7A92B;" d="M1211.59,1114.405c0.449,6.125-9.18,6.69-9.45,0.554
			C1201.69,1108.835,1211.32,1108.27,1211.59,1114.405z"/>
		<path style="fill:#F49B19;" d="M1212.035,1202.825c-6.19,0.373-10.213-2.564-12.674-7.567c0,0,29.951-2.541,9.344-76.219
			C1215.935,1136.571,1240.554,1201.122,1212.035,1202.825z"/>
		<path style="fill:#7640CC;" d="M1442.544,1256.095c-23.396,56.717-67.011,96.696-107.55,128.02
			c-72.324-16.811-181.194-117.46-180.43-123.798c0,0,18.791-11.317,38.117-12.026c0,0,60.473,68.414,135.923,102.124
			c0,0,69.47-58.81,81.03-102.12C1420.78,1250.164,1431.781,1252.821,1442.544,1256.095z"/>
		<path style="fill:#7640CC;" d="M1742.984,1426.025c-70.05,80.61-161.575,35.111-161.575,35.111c0.49-24.04,7.5-43.2,7.5-43.2
			s61.71,43.2,123.99-27.92C1722.669,1394.868,1735.554,1410.745,1742.984,1426.025z"/>
		<path style="fill:#7640CC;" d="M1597.34,1581.097c-14.493-35.46-29.997-138.172-7.012-162.473
			c4.645,2.879-7.288,18.697-6.438,42.512c-0.002,37.791,5.331,77.105,15.848,116.848
			C1600.171,1579.524,1598.937,1581.118,1597.34,1581.097z"/>
		<path style="fill:#7640CC;" d="M1354.789,1421.379c-0.079,17.678-26.958,17.677-27.035-0.001
			C1327.833,1403.701,1354.712,1403.703,1354.789,1421.379z"/>
		<path style="fill:#7640CC;" d="M1358.894,1470.4c-0.079,17.678-26.958,17.677-27.035-0.001
			C1331.938,1452.722,1358.817,1452.724,1358.894,1470.4z"/>
		<path style="fill:#7640CC;" d="M1358.894,1522.176c-0.079,17.678-26.958,17.677-27.035-0.001
			C1331.938,1504.498,1358.817,1504.499,1358.894,1522.176z"/>
		<path style="fill:#7640CC;" d="M1323.689,1560.222c-4.497-72.879-10.029-165.586-12.602-163.309
			C1316.34,1376.039,1332.288,1489.906,1323.689,1560.222z"/>
		<path style="fill:#7640CC;" d="M1369.935,1560.222c-1.428,0.002-2.578-1.217-2.476-2.646c5.52-81.361-6.985-164.869-7.112-165.703
			C1367.283,1373.29,1380.602,1487.276,1369.935,1560.222z"/>
		<path style="fill:#E57D61;" d="M1470.201,1717.135c-3.06-21.593-18.495-52.742-52.063-52.019
			c-1.893-0.073-1.756-3.127,0.186-2.962C1455.081,1662.706,1475.371,1697.541,1470.201,1717.135z"/>
		<path style="fill:#E57D61;" d="M1456.086,1717.135c-3.977-1.756-0.689-37.025-43.948-37.379c-1.906,0.039-1.934-3.003,0.001-2.966
			C1455.616,1677.312,1459.95,1716.337,1456.086,1717.135z"/>
		<path style="fill:#E57D61;" d="M1440.046,1717.136c-0.797,0-1.455-0.633-1.48-1.435c-0.525-12.61-17.448-20.647-34.049-18.84
			c-1.928,0.13-2.071-2.896-0.152-2.962c13.537-0.691,23.713,2.014,30.247,8.043
			C1441.371,1708.772,1443.136,1716.741,1440.046,1717.136z"/>
		<path style="fill:#7640CC;" d="M1177.241,1719.259c0,0,6.898-1.876-6.572-0.136c-4.4,0.228-29.888,0.333-34.474-1.062
			c-30.105-70.743,15.754-114.703,15.754-114.703c9.532,0,27.254,7.968,32.678,17.042
			C1181.966,1628.66,1156.241,1663.829,1177.241,1719.259z"/>
		<path style="fill:#7640CC;" d="M1155.288,1609.282c-2.472-0.521-14.182-9.356-37.453-29.919c-1.025-0.927-1.107-2.507-0.182-3.532
			c0.924-1.024,2.505-1.105,3.531-0.182C1143.01,1597.168,1164.923,1606.15,1155.288,1609.282z"/>
	</g>
	<path id="_x31_" style="fill:#7EAFE0;" d="M2373.409,1741.042H287.129c-22.673,0-22.345-22.982-0.205-22.982h2086.485
		C2390.334,1718.061,2390.584,1741.042,2373.409,1741.042z"/>
</g>
</svg>
